<?xml version="1.0" standalone="no"?>
<!DOCTYPE svg PUBLIC "-//W3C//DTD SVG 20010904//EN"
 "http://www.w3.org/TR/2001/REC-SVG-20010904/DTD/svg10.dtd">
<svg version="1.0" xmlns="http://www.w3.org/2000/svg"
 width="260.000000pt" height="260.000000pt" viewBox="0 0 260.000000 260.000000"
 preserveAspectRatio="xMidYMid meet">
<metadata>
Created by potrace 1.11, written by Peter Selinger 2001-2013
</metadata>
<g transform="translate(0.000000,260.000000) scale(0.100000,-0.100000)"
fill="#000000" stroke="none">
<path d="M1130 2570 c-136 -17 -250 -63 -250 -101 0 -67 185 -119 425 -119
320 0 526 95 370 170 -23 11 -73 27 -111 35 -86 19 -334 27 -434 15z"/>
<path d="M845 2279 c-242 -18 -440 -54 -466 -85 -60 -73 331 -126 921 -126
535 0 909 44 918 108 2 17 -6 25 -36 37 -46 18 -172 41 -317 58 -128 14 -862
20 -1020 8z"/>
<path d="M881 1999 c-318 -13 -634 -53 -701 -89 -11 -6 -20 -17 -20 -25 0 -76
595 -133 1278 -123 l334 5 104 104 c86 86 101 105 86 110 -28 11 -516 29 -717
27 -99 0 -263 -5 -364 -9z"/>
<path d="M2136 1890 l80 -81 79 16 c134 28 170 61 100 91 -41 17 -249 54 -303
54 l-37 0 81 -80z"/>
<path d="M755 1689 c-407 -24 -697 -76 -683 -122 11 -34 136 -67 338 -91 115
-13 115 -13 139 10 l25 23 31 -28 c31 -27 36 -28 186 -34 85 -4 264 -10 399
-13 l245 -6 130 131 c72 73 132 134 134 136 7 8 -795 3 -944 -6z"/>
<path d="M2095 1560 l-100 -100 35 0 c19 0 94 7 165 15 266 31 381 67 346 109
-19 23 -249 76 -328 76 -10 0 -63 -45 -118 -100z"/>
<path d="M910 1370 c-96 -4 -177 -8 -180 -9 -3 0 51 -57 120 -126 l125 -125
75 0 75 0 128 128 c70 70 127 131 127 135 0 8 -209 7 -470 -3z"/>
<path d="M1778 1243 c-65 -65 -118 -122 -118 -126 0 -4 42 -4 93 -1 412 23
600 43 725 75 110 28 130 52 68 82 -66 31 -307 67 -551 83 l-100 6 -117 -119z"/>
<path d="M281 1324 c-356 -52 -339 -121 42 -168 59 -7 107 -10 107 -7 0 3 -23
29 -52 58 l-52 53 39 40 c21 22 33 40 25 39 -8 -1 -57 -7 -109 -15z"/>
<path d="M1470 926 l-125 -126 35 0 c133 0 604 23 740 36 411 38 519 99 262
148 -102 19 -327 43 -487 50 -66 4 -160 9 -210 12 l-90 5 -125 -125z"/>
<path d="M345 1004 c-120 -16 -227 -41 -251 -59 -26 -19 -4 -41 60 -60 67 -20
318 -52 476 -61 l125 -6 -100 101 -100 101 -55 -1 c-30 -1 -100 -7 -155 -15z"/>
<path d="M1180 634 l-115 -116 375 5 c397 6 552 16 742 47 208 35 241 66 108
104 -116 33 -407 59 -805 71 l-190 6 -115 -117z"/>
<path d="M715 729 c-233 -17 -448 -52 -481 -80 -65 -54 196 -101 691 -125
l130 -6 -110 111 c-60 61 -110 110 -110 110 0 -1 -54 -6 -120 -10z"/>
<path d="M995 453 c-369 -21 -573 -63 -535 -108 24 -29 195 -59 437 -76 220
-15 832 -6 998 15 189 24 280 54 261 85 -19 30 -229 65 -486 81 -148 9 -547
11 -675 3z"/>
<path d="M1170 193 c-63 -7 -164 -34 -187 -49 -31 -20 -29 -46 5 -66 110 -65
567 -68 690 -4 41 21 46 41 15 66 -31 24 -77 37 -175 50 -71 9 -277 11 -348 3z"/>
</g>
</svg>
